<svg width="160" height="160" viewBox="0 0 160 160" fill="none" xmlns="http://www.w3.org/2000/svg">
<circle cx="80" cy="80" r="80" fill="#D9F2EF"/>
<path d="M80.8999 85.8497C80.3749 85.7747 79.6999 85.7747 79.0999 85.8497C65.8999 85.3997 55.3997 74.5997 55.3997 61.3246C55.3997 47.7496 66.3499 36.7246 79.9999 36.7246C93.5749 36.7246 104.6 47.7496 104.6 61.3246C104.525 74.5997 94.0999 85.3997 80.8999 85.8497Z" stroke="#071702" stroke-width="10" stroke-linecap="round" stroke-linejoin="round"/>
<path d="M130.55 135.35C117.2 147.575 99.5 155 80 155C60.5001 155 42.8001 147.575 29.4501 135.35C30.2001 128.3 34.7001 121.4 42.7251 116C63.2751 102.35 96.875 102.35 117.275 116C125.3 121.4 129.8 128.3 130.55 135.35Z" stroke="#071702" stroke-width="10" stroke-linecap="round" stroke-linejoin="round"/>
<path d="M80 155C121.421 155 155 121.421 155 79.9999C155 38.5786 121.421 5 80 5C38.5786 5 5 38.5786 5 79.9999C5 121.421 38.5786 155 80 155Z" stroke="#071702" stroke-width="10" stroke-linecap="round" stroke-linejoin="round"/>
</svg>
